<mxfile host="app.diagrams.net" modified="2021-07-28T22:23:35.065Z" agent="5.0 (Windows NT 10.0; Win64; x64) AppleWebKit/537.36 (KHTML, like Gecko) Chrome/92.0.4515.107 Safari/537.36" etag="9emNniIVXa71cwkg31pD" version="14.9.2" type="github">
  <diagram id="PD4x2Jez_3IE6LUOtenR" name="Page-1">
    <mxGraphModel dx="1422" dy="794" grid="1" gridSize="10" guides="1" tooltips="1" connect="1" arrows="1" fold="1" page="1" pageScale="1" pageWidth="850" pageHeight="1100" math="0" shadow="0">
      <root>
        <mxCell id="0" />
        <mxCell id="1" parent="0" />
        <mxCell id="byOGW8TRZdtDR0mBGnON-1" value="Newsletters" style="rounded=0;whiteSpace=wrap;html=1;" vertex="1" parent="1">
          <mxGeometry x="200" y="110" width="150" height="80" as="geometry" />
        </mxCell>
        <mxCell id="byOGW8TRZdtDR0mBGnON-2" value="Money" style="rounded=0;whiteSpace=wrap;html=1;" vertex="1" parent="1">
          <mxGeometry x="620" y="110" width="170" height="90" as="geometry" />
        </mxCell>
        <mxCell id="byOGW8TRZdtDR0mBGnON-3" value="" style="strokeWidth=2;html=1;shape=mxgraph.flowchart.annotation_2;align=left;labelPosition=right;pointerEvents=1;rotation=90;" vertex="1" parent="1">
          <mxGeometry x="250" y="160" width="50" height="100" as="geometry" />
        </mxCell>
        <mxCell id="byOGW8TRZdtDR0mBGnON-4" value="Gamestop&lt;br&gt;(news)" style="rounded=0;whiteSpace=wrap;html=1;" vertex="1" parent="1">
          <mxGeometry x="130" y="230" width="120" height="60" as="geometry" />
        </mxCell>
        <mxCell id="byOGW8TRZdtDR0mBGnON-5" value="Lakeland&lt;br&gt;(college)" style="rounded=0;whiteSpace=wrap;html=1;" vertex="1" parent="1">
          <mxGeometry x="310" y="230" width="120" height="60" as="geometry" />
        </mxCell>
        <mxCell id="byOGW8TRZdtDR0mBGnON-6" value="" style="strokeWidth=2;html=1;shape=mxgraph.flowchart.annotation_2;align=left;labelPosition=right;pointerEvents=1;rotation=90;" vertex="1" parent="1">
          <mxGeometry x="680" y="170" width="50" height="100" as="geometry" />
        </mxCell>
        <mxCell id="byOGW8TRZdtDR0mBGnON-7" value="Best Buy&lt;br&gt;(Retail)" style="rounded=0;whiteSpace=wrap;html=1;" vertex="1" parent="1">
          <mxGeometry x="560" y="240" width="120" height="60" as="geometry" />
        </mxCell>
        <mxCell id="byOGW8TRZdtDR0mBGnON-8" value="First Mid&lt;br&gt;(Bank)" style="rounded=0;whiteSpace=wrap;html=1;" vertex="1" parent="1">
          <mxGeometry x="730" y="240" width="120" height="60" as="geometry" />
        </mxCell>
        <mxCell id="byOGW8TRZdtDR0mBGnON-9" value="" style="endArrow=classic;html=1;entryX=0.5;entryY=0;entryDx=0;entryDy=0;" edge="1" parent="1" target="byOGW8TRZdtDR0mBGnON-14">
          <mxGeometry width="50" height="50" relative="1" as="geometry">
            <mxPoint x="189.5" y="290" as="sourcePoint" />
            <mxPoint x="160" y="350" as="targetPoint" />
          </mxGeometry>
        </mxCell>
        <mxCell id="byOGW8TRZdtDR0mBGnON-10" value="" style="endArrow=classic;html=1;entryX=0.5;entryY=0;entryDx=0;entryDy=0;" edge="1" parent="1" target="byOGW8TRZdtDR0mBGnON-15">
          <mxGeometry width="50" height="50" relative="1" as="geometry">
            <mxPoint x="369.5" y="290" as="sourcePoint" />
            <mxPoint x="369.5" y="340" as="targetPoint" />
          </mxGeometry>
        </mxCell>
        <mxCell id="byOGW8TRZdtDR0mBGnON-11" value="" style="endArrow=classic;html=1;entryX=0.5;entryY=0;entryDx=0;entryDy=0;" edge="1" parent="1" target="byOGW8TRZdtDR0mBGnON-16">
          <mxGeometry width="50" height="50" relative="1" as="geometry">
            <mxPoint x="619.5" y="290" as="sourcePoint" />
            <mxPoint x="619.5" y="350" as="targetPoint" />
          </mxGeometry>
        </mxCell>
        <mxCell id="byOGW8TRZdtDR0mBGnON-12" value="" style="endArrow=classic;html=1;entryX=0.5;entryY=0;entryDx=0;entryDy=0;" edge="1" parent="1" target="byOGW8TRZdtDR0mBGnON-17">
          <mxGeometry width="50" height="50" relative="1" as="geometry">
            <mxPoint x="789.5" y="290" as="sourcePoint" />
            <mxPoint x="770" y="370" as="targetPoint" />
          </mxGeometry>
        </mxCell>
        <mxCell id="byOGW8TRZdtDR0mBGnON-14" value="https://www.gamestop.com/weekly-ad&lt;br&gt;" style="ellipse;whiteSpace=wrap;html=1;" vertex="1" parent="1">
          <mxGeometry x="80" y="370" width="200" height="160" as="geometry" />
        </mxCell>
        <mxCell id="byOGW8TRZdtDR0mBGnON-15" value="https://www.lakelandcollege.edu/" style="ellipse;whiteSpace=wrap;html=1;" vertex="1" parent="1">
          <mxGeometry x="250" y="500" width="215" height="150" as="geometry" />
        </mxCell>
        <mxCell id="byOGW8TRZdtDR0mBGnON-16" value="https://www.bestbuy.com/" style="ellipse;whiteSpace=wrap;html=1;" vertex="1" parent="1">
          <mxGeometry x="450" y="395" width="170" height="110" as="geometry" />
        </mxCell>
        <mxCell id="byOGW8TRZdtDR0mBGnON-17" value="https://www.firstmid.com/location/mattoon-cross-county/&lt;br&gt;" style="ellipse;whiteSpace=wrap;html=1;" vertex="1" parent="1">
          <mxGeometry x="620" y="360" width="230" height="190" as="geometry" />
        </mxCell>
      </root>
    </mxGraphModel>
  </diagram>
</mxfile>
